<svg xmlns="http://www.w3.org/2000/svg" xml:space="preserve" width="520.6" height="48mm" viewBox="0 0 137.742 48"><path d="M0 0h137.741v48H0z" style="fill:#fff;fill-opacity:1;stroke-width:1.50115;stroke-linecap:round;stroke-linejoin:round"/><path d="M175.75 68.03H0V0h175.75z" style="fill:#fff;fill-rule:nonzero;stroke:none" transform="matrix(.35278 0 0 .35278 3.741 14.367)"/><path d="M.01 12.104h35.761l4.108-6.087L35.796 0H0z" style="fill:#004377;fill-rule:nonzero;stroke:none" transform="matrix(.35278 0 0 .35278 8.238 24.836)"/><path d="M6.252 2.802 6.987.946C6.602.666 5.726 0 4.027 0 1.61 0 .175 1.384.175 3.1c0 1.611.717 2.47 2.381 3.573l1.314.876c.929.613 1.278 1.033 1.278 1.839 0 .595-.578 1.12-1.821 1.12-1.261 0-2.154-.735-2.557-1.138L0 11.332c.402.332 1.418 1.173 3.362 1.173 2.925 0 4.116-1.734 4.116-3.415 0-1.541-.719-2.504-2.365-3.52L3.8 4.764c-.981-.596-1.332-.963-1.332-1.717 0-.595.508-1.086 1.629-1.086 1.157 0 1.874.614 2.155.841" style="fill:#171615;fill-rule:nonzero;stroke:none" transform="matrix(.35278 0 0 .35278 53.193 18.867)"/><path d="M9.37 7.023V0H7.111v7.093c0 2.277-.753 3.222-2.417 3.222-1.594 0-2.347-.98-2.347-3.222V0H0v7.023c0 3.643 1.418 5.272 4.607 5.272 3.187 0 4.763-1.734 4.763-5.272" style="fill:#171615;fill-rule:nonzero;stroke:none" transform="matrix(.35278 0 0 .35278 49.112 18.941)"/><path d="M0 12.084h2.347V0H0z" style="fill:#171615;fill-rule:nonzero;stroke:none" transform="matrix(.35278 0 0 .35278 45.224 18.941)"/><path d="M.017 0v1.699h1.437v8.687H0v1.698h5.254v-1.698H3.8V1.699h1.436V0z" style="fill:#171615;fill-rule:nonzero;stroke:none" transform="matrix(.35278 0 0 .35278 42.522 18.941)"/><path d="M7.024 0v7.496h-.035L2.015 0H0v12.084h2.348V4.536h.035l4.974 7.548H9.37V0z" style="fill:#171615;fill-rule:nonzero;stroke:none" transform="matrix(.35278 0 0 .35278 38.368 18.941)"/><path d="M7.846 3.766C7.846 1.33 6.27 0 2.872 0H0v12.084h2.347V7.69h.437c.246 0 .508 0 .736-.018l2.575 4.413h2.767l-3.1-4.973c1.383-.666 2.084-1.857 2.084-3.345m-2.451.017c0 1.296-.841 2.05-2.611 2.05h-.437V1.925h.525c1.717 0 2.523.613 2.523 1.857" style="fill:#171615;fill-rule:nonzero;stroke:none" transform="matrix(.35278 0 0 .35278 34.585 18.941)"/><path d="M0 0v12.084h7.32l.141-1.926H2.347V6.953H6.55V5.027H2.347v-3.1h4.536L7.023 0z" style="fill:#171615;fill-rule:nonzero;stroke:none" transform="matrix(.35278 0 0 .35278 31.166 18.941)"/><path d="M8.074 3.993C8.074 1.453 6.48 0 3.048 0H0v12.084h2.347v-3.87h.613c3.258 0 5.114-1.629 5.114-4.22m-2.47.051c0 1.437-.84 2.243-2.644 2.243h-.613V1.925h.7c1.752 0 2.558.771 2.558 2.12" style="fill:#171615;fill-rule:nonzero;stroke:none" transform="matrix(.35278 0 0 .35278 27.562 18.941)"/><path d="M10.999 6.252C10.999 2.138 8.739 0 5.517 0S0 2.138 0 6.252c0 4.116 2.259 6.253 5.499 6.253 3.223 0 5.5-2.137 5.5-6.253m-2.452 0c0 2.855-1.156 4.275-3.03 4.275-1.91 0-3.047-1.42-3.047-4.275 0-2.89 1.138-4.273 3.047-4.273 1.874 0 3.03 1.384 3.03 4.273" style="fill:#171615;fill-rule:nonzero;stroke:none" transform="matrix(.35278 0 0 .35278 22.821 18.867)"/><path d="M0 0v12.084h2.347V0z" style="fill:#171615;fill-rule:nonzero;stroke:none" transform="matrix(.35278 0 0 .35278 19.279 18.941)"/><path d="M8.073 3.993C8.073 1.453 6.48 0 3.047 0H0v12.084h2.346v-3.87h.614c3.257 0 5.113-1.629 5.113-4.221m-2.469.052c0 1.437-.84 2.243-2.644 2.243h-.614V1.926h.701c1.752 0 2.557.77 2.557 2.118" style="fill:#171615;fill-rule:nonzero;stroke:none" transform="matrix(.35278 0 0 .35278 27.551 24.836)"/><path d="M7.847 3.765C7.847 1.331 6.27 0 2.872 0H0v12.084h2.347V7.69h.438c.245 0 .508 0 .735-.018l2.575 4.413h2.767l-3.1-4.974c1.384-.664 2.085-1.856 2.085-3.345m-2.453.017c0 1.297-.84 2.05-2.61 2.05h-.437V1.927h.526c1.716 0 2.521.612 2.521 1.855" style="fill:#171615;fill-rule:nonzero;stroke:none" transform="matrix(.35278 0 0 .35278 31.221 24.836)"/><path d="M10.999 6.252C10.999 2.137 8.739 0 5.517 0S0 2.137 0 6.252s2.259 6.252 5.5 6.252c3.222 0 5.499-2.136 5.499-6.252m-2.453 0c0 2.855-1.156 4.274-3.03 4.274-1.908 0-3.047-1.419-3.047-4.274 0-2.89 1.139-4.273 3.048-4.273 1.873 0 3.03 1.383 3.03 4.273" style="fill:#171615;fill-rule:nonzero;stroke:none" transform="matrix(.35278 0 0 .35278 34.823 24.762)"/><path d="M4.851 0H2.487v8.67c0 1.278-.385 1.663-1.384 1.663a1.9 1.9 0 0 1-.946-.245L0 11.927c.193.122.683.35 1.628.35 1.962 0 3.223-.963 3.223-3.45z" style="fill:#171615;fill-rule:nonzero;stroke:none" transform="matrix(.35278 0 0 .35278 39.148 24.836)"/><path d="M7.022 0H0v12.084h7.32l.141-1.927H2.347V6.952H6.55V5.026H2.347v-3.1h4.536z" style="fill:#171615;fill-rule:nonzero;stroke:none" transform="matrix(.35278 0 0 .35278 41.96 24.836)"/><path d="M9.527 0H0v1.926h3.538v10.158h2.347V1.926h3.502z" style="fill:#171615;fill-rule:nonzero;stroke:none" transform="matrix(.35278 0 0 .35278 49.07 24.836)"/><path d="M7.024 0H0v12.084h7.322l.139-1.927H2.347V6.952h4.204V5.026H2.347v-3.1h4.536z" style="fill:#171615;fill-rule:nonzero;stroke:none" transform="matrix(.35278 0 0 .35278 53.155 24.836)"/><path d="M2.347 0H0v12.084h2.347z" style="fill:#171615;fill-rule:nonzero;stroke:none" transform="matrix(.35278 0 0 .35278 45.444 24.836)"/><path d="M2.855 0H.245l4.134 5.884L0 12.084h2.837l4.11-6.042z" style="fill:#004377;fill-rule:nonzero;stroke:none" transform="matrix(.35278 0 0 .35278 22.083 24.836)"/><path d="M2.855 0H.245L4.38 5.885 0 12.085h2.838l4.116-6.043z" style="fill:#1a8f9d;fill-rule:nonzero;stroke:none" transform="matrix(.35278 0 0 .35278 24.313 24.836)"/><path d="M4.069 0 0 6.043l1.124 1.68 2.962 4.361h2.838l-4.379-6.2L6.68 0z" style="fill:#8f3447;fill-rule:nonzero;stroke:none" transform="matrix(.35278 0 0 .35278 20.107 18.941)"/><path d="M2.596 5.944 6.77 0H4.135L0 6.104l4.153 6.102h2.865z" style="fill:#171615;fill-rule:nonzero;stroke:none" transform="matrix(.35278 0 0 .35278 46.272 24.815)"/><path d="M1.28 7.112c2.423 0 3.842-1.103 3.842-3.556C5.122 1.24 3.96.315 1.4.315H0v6.796ZM1.4 1.054c1.823 0 2.807.64 2.807 2.501 0 2.02-1.034 2.818-2.925 2.818H.857v-5.32ZM7.345.68a.554.554 0 0 0-.571-.572.546.546 0 0 0-.562.572c0 .344.247.561.562.561s.571-.217.571-.561m-.177 1.704H6.37v4.728h.798Zm4.792 1.733c0-1.191-.611-1.851-1.587-1.851-1.073 0-2.048.768-2.048 2.422 0 1.764.807 2.543 2.147 2.543 1.005 0 1.409-.424 1.566-.582l-.236-.57c-.128.117-.492.443-1.241.443-.858 0-1.38-.513-1.438-1.607h2.748c.049-.227.089-.483.089-.798m-1.655-1.172c.561 0 .906.374.906 1.034 0 .1 0 .198-.02.316H9.123c.059-.867.522-1.35 1.182-1.35m9.338-2.63h-4.325v.71h3.271v.019L15.141 6.58v.532h4.739l.059-.71h-3.684v-.02L19.643.848zm4.971 2.069h-.798v3.625c-.197.187-.542.512-1.212.512-.64 0-.916-.404-.916-1.34V2.385h-.798v2.925c0 1.32.532 1.922 1.508 1.922.925 0 1.31-.473 1.457-.65h.02v.531h.74zm5.126 0h-.965l-1.557 1.841h-.413V.06l-.798.088v6.965h.798V4.905h.394l1.615 2.207h1.005l-1.96-2.6Zm4.66 0h-.797v3.625c-.197.187-.542.512-1.212.512-.64 0-.916-.404-.916-1.34V2.385h-.798v2.925c0 1.32.532 1.922 1.507 1.922.926 0 1.31-.473 1.458-.65h.02v.531h.738zm5.176 4.728V4.186c0-1.29-.552-1.92-1.557-1.92-.817 0-1.28.443-1.467.65h-.02v-.532h-.739v4.728h.798V3.487c.217-.197.601-.512 1.241-.512.67 0 .946.433.946 1.34v2.797Zm3.564-4.728H41.91v-.788c0-.65.236-.887.699-.887.256 0 .463.089.532.118l.108-.68C43.19.118 42.963 0 42.618 0c-.956 0-1.507.532-1.507 1.586v.798l-.65.118v.561h.65v4.05h.798v-4.05h1.132zm3.473 0h-1.32v-1.32h-.71l-.087 1.32-.65.118v.561h.65v2.552c0 1.083.364 1.615 1.29 1.615.503 0 .768-.158.847-.207l-.079-.64c-.098.05-.296.138-.552.138-.522 0-.708-.276-.708-1.014V3.063h1.221zm6.955 0h-.798v3.625c-.197.187-.542.512-1.212.512-.64 0-.916-.404-.916-1.34V2.385h-.798v2.925c0 1.32.533 1.922 1.507 1.922.926 0 1.31-.473 1.458-.65h.02v.531h.739zm5.175 4.728V4.186c0-1.29-.552-1.92-1.556-1.92-.818 0-1.281.443-1.468.65h-.02v-.532h-.738v4.728h.798V3.487c.216-.197.6-.512 1.24-.512.67 0 .946.433.946 1.34v2.797zm3.979-4.393c-.168-.138-.532-.453-1.291-.453-.896 0-1.526.521-1.526 1.221 0 .65.335 1.044 1.015 1.408l.344.188c.532.285.828.453.828.906 0 .306-.306.532-.907.532-.571 0-.916-.286-1.123-.493l-.295.7c.216.197.63.502 1.418.502 1.153 0 1.685-.62 1.685-1.34 0-.689-.404-1.093-1.143-1.467l-.354-.178c-.503-.256-.72-.423-.72-.798 0-.275.247-.492.759-.492.522 0 .877.275 1.044.414zm4.66 1.398c0-1.191-.612-1.851-1.586-1.851-1.075 0-2.05.768-2.05 2.422 0 1.764.808 2.543 2.148 2.543 1.005 0 1.408-.424 1.567-.582l-.237-.57c-.13.117-.493.442-1.241.442-.857 0-1.38-.512-1.438-1.606h2.748c.049-.227.089-.483.089-.798m-1.656-1.172c.562 0 .907.374.907 1.034 0 .1 0 .198-.02.316h-2.068c.058-.867.52-1.35 1.18-1.35m5.273-.58a1.2 1.2 0 0 0-.434-.07c-.74 0-1.055.443-1.202.788h-.02v-.7h-.74v4.73h.799v-3.44c.139-.284.464-.67 1.094-.67.257 0 .374.06.433.09zm4.228 1.752c0-1.191-.61-1.851-1.586-1.851-1.073 0-2.05.768-2.05 2.422 0 1.764.809 2.543 2.149 2.543 1.005 0 1.408-.424 1.566-.582l-.236-.57c-.128.117-.493.442-1.241.442-.858 0-1.38-.512-1.44-1.606h2.749c.05-.227.089-.483.089-.798m-1.655-1.172c.562 0 .906.374.906 1.034 0 .1 0 .198-.02.316H72.39c.06-.867.523-1.35 1.182-1.35m5.272-.58a1.2 1.2 0 0 0-.433-.07c-.738 0-1.054.443-1.201.788h-.021v-.7h-.738v4.73h.798v-3.44c.137-.284.463-.67 1.093-.67.256 0 .375.06.433.09zm7.162-2.05h-3.763v6.797h3.91l.06-.71h-3.114V4.04h2.61v-.71H83.1V1.024h2.848zm5.073 6.797V4.186c0-1.29-.552-1.92-1.557-1.92-.817 0-1.28.443-1.468.65h-.02v-.532h-.738v4.728h.798V3.487c.216-.197.6-.512 1.242-.512.669 0 .945.433.945 1.34v2.797zm4.779-2.995c0-1.191-.61-1.851-1.586-1.851-1.073 0-2.05.768-2.05 2.422 0 1.764.809 2.543 2.149 2.543 1.005 0 1.409-.424 1.566-.582l-.236-.57c-.128.117-.493.442-1.241.442-.858 0-1.38-.512-1.44-1.606h2.749c.05-.227.089-.483.089-.798m-1.654-1.172c.56 0 .906.374.906 1.034 0 .1 0 .198-.02.316h-2.07c.06-.867.524-1.35 1.184-1.35m5.27-.58a1.2 1.2 0 0 0-.432-.07c-.74 0-1.054.443-1.201.788h-.02v-.7h-.74v4.73h.799v-3.44c.137-.284.462-.67 1.093-.67.256 0 .374.06.434.09zm4.878.019h-1.635a2 2 0 0 0-.709-.118c-.995 0-1.792.532-1.792 1.595 0 .7.314 1.162.797 1.399v.02c-.129.059-.561.295-.561.788 0 .266.088.512.295.67v.02c-.285.147-.827.443-.827 1.162 0 .846.65 1.28 1.773 1.28 1.645 0 2.502-.827 2.502-1.723 0-.838-.571-1.252-1.566-1.252h-.966c-.355 0-.502-.137-.502-.334 0-.256.236-.395.393-.463.129.02.257.029.395.029 1.054 0 1.851-.591 1.851-1.596 0-.315-.098-.61-.265-.857h.719zm-2.767 4.58h1.044c.532 0 .768.177.768.63 0 .483-.493.926-1.645.926-.709 0-1.064-.226-1.064-.757 0-.454.246-.69.492-.838.119.029.246.039.405.039m1.437-3.103c0 .68-.482.936-1.024.936-.522 0-1.005-.256-1.005-.936s.483-.935 1.025-.935c.522 0 1.004.256 1.004.935M106.278.68a.554.554 0 0 0-.571-.572.546.546 0 0 0-.562.572c0 .344.246.561.562.561.315 0 .571-.217.571-.561m-.178 1.704h-.798v4.728h.798zm4.792 1.733c0-1.191-.611-1.851-1.586-1.851-1.074 0-2.048.768-2.048 2.422 0 1.764.807 2.543 2.147 2.543 1.005 0 1.408-.424 1.566-.582l-.237-.57c-.128.117-.492.442-1.241.442-.857 0-1.379-.512-1.438-1.606h2.748c.049-.227.089-.483.089-.798m-1.655-1.172c.562 0 .906.374.906 1.034 0 .1 0 .198-.019.316h-2.069c.059-.867.522-1.35 1.182-1.35" style="fill:#56656c;fill-rule:nonzero;stroke:none" transform="matrix(.35278 0 0 .35278 22.09 30.621)"/><path d="M4.136 0 0 6.104l4.153 6.101h2.866L2.597 5.943 6.772 0z" style="fill:#0a8db4;fill-rule:nonzero;stroke:none" transform="matrix(.35278 0 0 .35278 46.052 18.92)"/><path d="M3.302.555C3.119.42 2.706.107 1.904.107.76.107.081.761.081 1.572c0 .761.34 1.167 1.126 1.688l.62.414c.44.29.605.489.605.868 0 .281-.273.53-.86.53-.596 0-1.019-.347-1.209-.538L0 5.461c.19.157.67.555 1.59.555 1.38 0 1.943-.82 1.943-1.614 0-.728-.34-1.183-1.117-1.663l-.62-.381c-.464-.281-.63-.455-.63-.81 0-.282.24-.514.77-.514.546 0 .886.29 1.018.397zm4.31 1.331H6.579l-.753 2.69H5.81l-.836-2.69H3.84l1.497 3.99-.04.148c-.134.438-.349.703-.878.703a.9.9 0 0 1-.34-.058v.877a1 1 0 0 0 .406.074c.943 0 1.332-.446 1.779-1.754zm4.147 4.03V3.36c0-1.002-.464-1.572-1.325-1.572-.661 0-1.018.346-1.166.545H9.25v-.447h-.96v4.03h1.043V2.962a1.08 1.08 0 0 1 .736-.281c.447 0 .645.257.645.853v2.382zm4.517-5.71h-3.318v5.71h3.46l.065-.91h-2.416V3.491h1.986v-.91h-1.986V1.117h2.143zm3.426 1.639a2 2 0 0 0-.331-.033c-.538 0-.819.273-1.001.638h-.017v-.564h-.96v4.03h1.042V3.12c.142-.214.423-.414.887-.414.165 0 .272.034.305.05zm4.212.041h-1.407a1.9 1.9 0 0 0-.62-.098c-.894 0-1.614.438-1.614 1.381 0 .57.265.96.67 1.175v.008c-.124.075-.496.34-.496.786 0 .232.074.414.24.547v.017c-.24.123-.638.388-.638.91 0 .662.497 1.058 1.564 1.058 1.481 0 2.243-.72 2.243-1.53 0-.753-.521-1.1-1.39-1.1h-.87c-.206 0-.289-.092-.289-.232 0-.133.083-.233.183-.29.123.016.256.024.388.024.902 0 1.614-.446 1.614-1.373 0-.231-.058-.447-.166-.637h.489zm-2.416 3.997h.86c.414 0 .562.116.562.389 0 .364-.413.637-1.2.637-.504 0-.785-.157-.785-.554 0-.248.115-.398.232-.489.099.01.206.017.33.017m1.067-2.714c0 .455-.323.646-.687.646-.347 0-.678-.19-.678-.646 0-.463.33-.654.695-.654.347 0 .67.19.67.654m3.177-1.283H24.7v4.03h1.042zm.083-1.282c0-.372-.248-.604-.604-.604-.364 0-.612.232-.612.604 0 .364.248.596.612.596.356 0 .604-.232.604-.596M29.93 3.4c0-1.06-.53-1.613-1.398-1.613-1.002 0-1.838.653-1.838 2.084 0 1.532.778 2.144 1.87 2.144.952 0 1.308-.357 1.432-.472l-.24-.728a1.55 1.55 0 0 1-.96.322c-.661 0-1.034-.272-1.092-.951h2.16c.033-.19.066-.422.066-.786m-1.498-.803c.364 0 .571.274.571.703 0 .059 0 .116-.008.19h-1.3c.025-.595.324-.893.737-.893" style="fill:#fff;fill-rule:nonzero;stroke:none" transform="matrix(.35278 0 0 .35278 9.553 25.917)"/><path d="M0 0h204.093l.001 136.063H0z" style="fill:#fff;fill-rule:nonzero;stroke:none" transform="matrix(.35278 0 0 .35278 65.742 0)"/><path d="M20.317 7.945c1.023 1.622 1.824 1.594 3.035 1.594-1-.765-1.66-1.75-1.977-2.254l-1.871-2.992a4.45 4.45 0 0 0-1.375-2.43c.239-.089.442-.187.559-.277-1.22 0-2.43-.621-3.098-.621-.425 0-.703.258-.703.594.028.379.418.76 1.133.76.164 0 .371-.018.598-.057.39.54.703 1.027.703 1.726 0 1.313-1.567 2.332-3.15 2.332a3 3 0 0 1-.26-.011c-.145-.324-.621-.867-.621-1.49 0-1.042.679-1.889.679-2.92 0-.641-.312-1.039-.433-1.204.195-.179.406-.402.457-.554-.114.05-.246.054-.442.054-.758 0-1.38-.195-1.98-.195-.344 0-.434.106-.434.207a.2.2 0 0 0 .016.094 2 2 0 0 0-.395-.11 3 3 0 0 0-.57-.05c-.734 0-.992.304-.992.57 0 .223.176.625.375.938.285-.145.625-.243.78-.243.392 0 .735.371.919.809-.262.031-.313.043-.574.043-.715 0-1.2-.254-1.297-.254-.012 0-.031.004-.031.02 0 .101.203.363.6.507.525.196 1.314.274 1.443.297 0 .024-.133.27-.282.317a.15.15 0 0 1-.093.004c-.547-.11-.7-.153-1.395-.418-.023-.008-.035.004-.035.027 0 .273.711.883 1.351 1.113-.535.684-1.2 1.379-1.51 2.438-.091.008-.177.01-.267.01-1.582 0-3.148-1.018-3.148-2.331 0-.699.312-1.187.703-1.726.226.04.433.058.598.058.714 0 1.105-.382 1.132-.761 0-.336-.273-.594-.703-.594-.668 0-1.875.62-3.097.62.12.091.32.19.558.278a4.45 4.45 0 0 0-1.375 2.43L1.981 7.285C1.665 7.79 1 8.774 0 9.54c1.207 0 2.012.028 3.036-1.594l.957-1.53q.11.296.26.581l-1.905 3.05c-.316.51-.976 1.481-1.98 2.255 1.21 0 2.01.027 3.035-1.594l1.64-2.625q.187.195.391.379l-2.316 3.707c-.321.508-.973 1.48-1.98 2.25 1.21 0 2.01.031 3.034-1.59L6.43 9.215c.149.094.3.184.461.27L4.133 13.9c-.316.504-.972 1.472-1.98 2.25 1.211 0 2.012.027 3.039-1.59l2.836-4.543c.168.062.34.125.512.179l-3.207 5.133c-.313.5-.985 1.49-1.977 2.25 1.207 0 2.012.028 3.031-1.59l3.418-5.468q.052.004.106.015c.093.297.156.575.156.848 0 1.719-1.125 3.238-2.481 4.41.086.035.239.051.375.051.282 0 .46-.016.59-.039-.316.715-.988 1.637-1.328 2.11-.445-.08-1.09-.141-1.512-.141-.441 0-.492.257-.492.488 0 .402.188.723.406.898.082-.203.247-.476 1.063-.476.016 0 .047 0 .082.004-.238.265-.984.867-.984 1.355 0 .32.351.805.82.805-.027-.106-.027-.199-.027-.274 0-.39.351-.85.644-1.175-.008.097-.004.086-.004.2 0 .928.086 1.358.676 1.358.289 0 .488-.16.559-.207-.383-.355-.403-.633-.403-1.152 0-.137 0-.27.004-.453 0-.12-.004-.278-.02-.395.212-.027.298-.027.458-.027 0 0 .84-.067 1.043.371.226-.211.558-.504.558-.828 0-.215-.101-.46-.535-.46-.164 0-.68.1-1.109.1.117-.257.633-1.011 1.078-1.558.066.211.172.441.406.629.035-.352.238-1.465.789-2.117.067.441.152.89.152 1.843 0 2.313-.558 4.024-1.738 4.348.153.269.481.508.817.508.429 0 .668-.49.906-.949.125.34.469 1.175.816 1.175.348 0 .692-.836.817-1.175.238.46.476.949.906.949.34 0 .664-.24.816-.508-1.18-.324-1.738-2.035-1.738-4.348 0-.953.086-1.402.152-1.843.551.652.758 1.765.789 2.117.235-.188.34-.418.407-.629.445.547.96 1.301 1.078 1.558-.43 0-.946-.1-1.11-.1-.433 0-.535.245-.535.46 0 .324.332.617.559.828.203-.438 1.043-.37 1.043-.37.164 0 .25 0 .461.026-.02.117-.024.274-.02.395v.453c0 .52-.019.797-.402 1.152.07.047.269.207.558.207.59 0 .676-.43.676-1.359 0-.113.004-.102-.004-.199.293.324.645.785.645 1.175 0 .075.004.168-.027.274.468 0 .82-.485.82-.805 0-.488-.746-1.09-.984-1.355q.058-.005.082-.004c.816 0 .98.273 1.062.476.22-.175.406-.496.406-.898 0-.23-.05-.488-.492-.488-.422 0-1.066.062-1.512.14-.34-.472-1.011-1.394-1.328-2.109.13.023.31.04.59.04.141 0 .29-.017.375-.052-1.351-1.172-2.48-2.691-2.48-4.41 0-.273.062-.551.156-.848.035-.008.07-.01.105-.015l3.418 5.468c1.024 1.618 1.825 1.59 3.035 1.59-.996-.76-1.667-1.75-1.98-2.25l-3.207-5.133c.176-.054.344-.117.512-.179l2.84 4.543c1.023 1.617 1.824 1.59 3.035 1.59-1.008-.778-1.66-1.746-1.981-2.25l-2.754-4.414q.235-.129.457-.27l2.258 3.613c1.024 1.621 1.824 1.59 3.035 1.59-1.008-.77-1.66-1.742-1.98-2.25l-2.317-3.707c.137-.12.266-.25.387-.379l1.645 2.625c1.023 1.621 1.824 1.594 3.035 1.594-1.004-.774-1.66-1.746-1.981-2.254l-1.906-3.05c.102-.192.192-.384.262-.583ZM5.012 4.434c0-1.141.828-2.04 1.121-2.293q.105.022.211.047c-.312.38-.86 1.011-.86 1.851 0 1.668 1.782 3.117 3.802 3.117q-.019.216-.02.45c0 .246.012.472.035.687C7.02 8.281 5.012 6.43 5.012 4.434M8.106 18.11l-.016.039h.039c.64 0 .954-.047 1.16-.08.11-.01.188-.026.27-.026.164 0 .293.02.293.223 0 .137-.16.351-.316.476-.235-.218-.563-.265-1.043-.265-.223 0-.52.043-.676.062l-.024.004-.027.004.008.074c.019.133.043.297.043.524l-.004.2-.004.253c0 .543.074.851.266 1.086a.6.6 0 0 1-.18.035c-.34 0-.438-.15-.438-1.12 0-.196-.007-.38-.015-.5l-.012-.185-.039.035c-.504.383-1.02 1.067-1.051 1.578-.152-.097-.316-.316-.316-.484 0-.28.422-.699.906-1.183l.277-.282.04-.035-.094-.023a2 2 0 0 0-.465-.075c-.543 0-.883.102-1.094.332-.078-.109-.14-.367-.14-.515q0-.146.058-.203c.047-.047.12-.047.188-.047h.01c.603 0 1.322.11 1.599.152l.02.004.007-.012c.051-.066 1.196-1.589 1.493-2.398a.6.6 0 0 1 .246-.047c.226 0 .29.152.351.387-.715.871-1.16 1.547-1.32 2.012m6.172-2.4c.12 0 .179.021.25.048.297.81 1.44 2.332 1.488 2.398l.012.012.015-.004c.282-.043.997-.152 1.598-.152h.016c.062 0 .136 0 .183.047.039.04.059.105.059.203 0 .148-.063.406-.14.515-.208-.23-.552-.332-1.094-.332-.165 0-.36.047-.465.075l-.043.011-.047.012.312.317c.489.484.907.902.907 1.183 0 .168-.164.387-.313.484-.035-.511-.551-1.195-1.055-1.578l-.043-.035-.007.184c-.004.121-.016.305-.016.5 0 .972-.102 1.121-.438 1.121a.6.6 0 0 1-.179-.035c.19-.235.265-.543.265-1.086l-.003-.254-.004-.2c0-.226.023-.39.043-.523l.007-.074-.05-.008c-.161-.02-.453-.062-.676-.062-.481 0-.81.047-1.043.265-.156-.125-.317-.339-.317-.476 0-.203.125-.223.293-.223.082 0 .16.016.27.027.207.032.52.079 1.16.079h.04l-.013-.039c-.164-.465-.609-1.14-1.324-2.012.063-.235.125-.387.352-.387m-2.65-13.296a2.1 2.1 0 0 0-.417-.832c-.175-.207-.464-.453-.86-.453-.18 0-.476.082-.667.164-.07-.129-.211-.441-.211-.582 0-.144.246-.293.715-.293 1.031 0 1.648.465 1.648 1.246 0 .278-.11.528-.207.75m.462-1.02a1.3 1.3 0 0 0-.25-.589c.008-.203.09-.399.418-.238-.175.18-.043.5-.043.5S12.579.9 12.5.66c.536.13.153.844-.41.735m2.008 6.899q.042-.335.043-.687c0-.129 0-.282-.016-.45 1.997-.031 3.743-1.464 3.743-3.117 0-.84-.547-1.472-.856-1.851l.207-.047c.293.254 1.12 1.152 1.12 2.293 0 1.98-1.98 3.82-4.241 3.859" style="fill:#000;fill-rule:nonzero;stroke:none" transform="matrix(.35278 0 0 .35278 73.981 18.81)"/><path d="M0 0h3.5v20H0z" style="fill:#000;fill-rule:nonzero;stroke:none" transform="matrix(.35278 0 0 .35278 84.362 19.163)"/><path d="M0 0h3.5v20.102H0z" style="fill:red;fill-rule:nonzero;stroke:none" transform="matrix(.35278 0 0 .35278 84.362 26.183)"/><path d="M0 0h3.5v20H0z" style="fill:#fc0;fill-rule:nonzero;stroke:none" transform="matrix(.35278 0 0 .35278 84.362 33.274)"/><path d="m67.524 2.832-.816 3.207c-.168.644-.313 1.222-.336 1.668h-.024c-.023-.446-.19-1.035-.375-1.684l-.898-3.19h-1.043l1.86 5.75-.087.3c-.25.886-.562 1.32-1.246 1.32a.9.9 0 0 1-.41-.086v.84c.062.035.23.109.47.109 1.14 0 1.643-.734 2.065-2.137l1.797-6.097zm-3.723-.012c-.093-.035-.25-.094-.527-.094-.73 0-1.043.43-1.21.887h-.024v-.78h-.89v5.76h.972V4.371c.144-.387.468-.78 1.082-.78.261 0 .43.07.48.092zm-3.597 5.664-.133-.777a1.2 1.2 0 0 1-.602.168c-.492 0-.683-.243-.683-1.059V3.625h1.261l.121-.793h-1.382V1.226h-.864l-.109 1.606-.695.144v.649h.695v3.324c0 1.273.504 1.789 1.488 1.789.516 0 .817-.19.903-.254M56.29 3.3c-.192-.191-.575-.613-1.46-.613-.939 0-1.669.637-1.669 1.488 0 .793.43 1.262 1.148 1.72l.363.226c.551.347.84.54.84 1.094 0 .371-.312.66-.89.66-.622 0-.985-.375-1.164-.567l-.465.77c.226.238.695.66 1.617.66 1.176 0 1.836-.707 1.836-1.62 0-.853-.48-1.321-1.258-1.79l-.359-.215c-.52-.313-.758-.55-.758-.984 0-.336.277-.614.793-.614.54 0 .875.336 1.008.481zm-4.39-.468h-.974v5.761h.973zm-.482-1.391c.383 0 .65-.289.65-.695 0-.399-.267-.684-.65-.684-.394 0-.66.285-.66.684 0 .406.266.695.66.695m-3.91 2.074c.672 0 .996.4.996 1.371v3.707h.97v-3.78c0-1.559-.645-2.126-1.68-2.126-.899 0-1.415.59-1.524.793h-.023v-.648h-.887v5.761h.972V4.152c.192-.238.586-.637 1.176-.637m-3.636-.683H42.9v5.761h.973zm-.48-1.391c.382 0 .648-.289.648-.695 0-.399-.266-.684-.649-.684-.394 0-.66.285-.66.684 0 .406.266.695.66.695M40.113.312 38.161 6.04c-.184.527-.336 1.054-.352 1.414h-.023c-.024-.36-.18-.899-.36-1.43L35.47.313h-1.164v8.28h1.008V4.656c0-.996-.012-1.953-.047-2.328h.035c.074.36.364 1.285.672 2.222l1.371 4.043h.828L39.54 4.55c.312-.937.585-1.863.671-2.222h.036c-.036.347-.047 1.332-.047 2.328v3.937h1.008V.313ZM29.782 0l-.973.109v7.223c0 1.02.445 1.371 1.094 1.371.433 0 .683-.11.781-.156l-.086-.723c-.058.023-.18.074-.359.074-.336 0-.457-.168-.457-.648zm-3.383 6.074v1.269c-.12.18-.395.567-.961.567-.48 0-.766-.301-.766-.89 0-.634.493-.899 1.414-.934zm0-.723h-.301c-1.308 0-2.398.446-2.398 1.778 0 .937.66 1.609 1.535 1.609.73 0 1.078-.492 1.211-.78h.023c.016.288.028.467.039.635h.922c-.023-.156-.07-.707-.07-1.199V4.765c0-1.453-.625-2.078-1.801-2.078-.926 0-1.477.445-1.727.7l.407.648c.215-.195.6-.52 1.176-.52.625 0 .984.313.984 1.285zM23.254 2.82c-.093-.035-.25-.094-.527-.094-.73 0-1.043.43-1.211.887h-.023v-.78h-.891v5.76h.973V4.371c.144-.387.468-.78 1.082-.78.261 0 .429.07.476.092zm-3.828 5.234-.36-.683a1.69 1.69 0 0 1-1.21.504c-.973 0-1.5-.637-1.563-1.98h2.942a8.4 8.4 0 0 0 .07-1.118c0-1.379-.672-2.09-1.762-2.09-1.199 0-2.195.914-2.195 2.953 0 2.172.91 3.098 2.363 3.098 1.09 0 1.559-.516 1.715-.684M17.485 3.48c.609 0 .933.47.933 1.262 0 .18-.011.336-.023.418h-2.09c.05-1.078.492-1.68 1.18-1.68m-4.274 4.5h.024v.613h.887V0l-.969.109v2.762a2.1 2.1 0 0 0-.817-.145c-1.226 0-2.546.742-2.546 3.07 0 2.102.925 2.942 2.015 2.942.914 0 1.297-.578 1.406-.758m-1.14-.105c-.672 0-1.274-.532-1.274-2.114 0-1.632.71-2.207 1.61-2.207.347 0 .578.094.746.204v3.55c-.133.192-.469.567-1.082.567m-3.192.18-.36-.684a1.69 1.69 0 0 1-1.214.504c-.97 0-1.5-.637-1.558-1.98h2.94a8.4 8.4 0 0 0 .071-1.118c0-1.379-.672-2.09-1.761-2.09-1.204 0-2.2.914-2.2 2.953 0 2.172.914 3.098 2.368 3.098 1.089 0 1.558-.516 1.714-.684M6.934 3.48c.613 0 .938.47.938 1.262 0 .18-.012.336-.024.418h-2.09c.047-1.078.492-1.68 1.176-1.68M1.043 8.593V5.031h2.723v-.828H1.043V1.14h2.954l.07-.828H0v8.281Z" style="fill:#000;fill-rule:nonzero;stroke:none" transform="matrix(.35278 0 0 .35278 88.4 18.95)"/><path d="m102 2.903-.817 3.207c-.168.644-.312 1.222-.336 1.668h-.023c-.024-.446-.191-1.035-.375-1.684l-.899-3.191h-1.042l1.859 5.75-.086.3c-.25.887-.563 1.32-1.246 1.32a.9.9 0 0 1-.406-.085v.84a.95.95 0 0 0 .464.109c1.141 0 1.645-.734 2.067-2.137l1.797-6.097zm-6.672 7.476c-.684 0-1.02-.312-1.02-.922 0-.578.31-.851.586-1.007.133.023.29.035.446.035h.73c.59 0 .973.215.973.765 0 .59-.539 1.129-1.715 1.129m2.711-1.27c0-1.093-.817-1.527-1.906-1.527h-.735c-.418 0-.586-.168-.586-.406 0-.301.274-.457.465-.54.098.013.195.013.301.013 1.13 0 1.992-.735 1.992-1.957 0-.383-.094-.742-.273-1.031h.718l.133-.758h-1.754a2.1 2.1 0 0 0-.765-.145c-1.082 0-1.957.637-1.957 1.934 0 .914.394 1.488.984 1.765v.024c-.145.07-.699.312-.699.933 0 .364.133.625.375.805v.024c-.266.144-.96.554-.96 1.406 0 .996.66 1.558 1.882 1.558 1.703 0 2.785-.863 2.785-2.097m-1.418-4.417c0 .828-.453 1.152-1.008 1.152-.527 0-.996-.324-.996-1.152s.47-1.153 1.023-1.153c.528 0 .981.325.981 1.153m-4.965 1.094c0 1.523-.469 2.16-1.262 2.16s-1.273-.637-1.273-2.16c0-1.528.47-2.2 1.262-2.2.793 0 1.273.672 1.273 2.2m-3.543 0c0 2.16.973 3.023 2.246 3.023 1.258 0 2.305-.88 2.305-3.023 0-2.125-.973-3.028-2.246-3.028-1.235 0-2.305.903-2.305 3.028M86.601.071l-.968.109v7.223c0 1.019.441 1.37 1.09 1.37.433 0 .683-.11.781-.155l-.086-.723c-.059.023-.18.074-.36.074-.336 0-.457-.168-.457-.648zm-3.19 5.715c0 1.523-.47 2.16-1.259 2.16-.793 0-1.273-.637-1.273-2.16 0-1.528.468-2.2 1.261-2.2.79 0 1.27.672 1.27 2.2m-3.54 0c0 2.16.972 3.023 2.242 3.023 1.262 0 2.305-.88 2.305-3.023 0-2.125-.973-3.028-2.242-3.028-1.239 0-2.305.903-2.305 3.028m-3.156-2.2c.671 0 .996.399.996 1.371v3.707h.972V4.883c0-1.558-.648-2.125-1.679-2.125-.903 0-1.418.59-1.524.793h-.027v-.648h-.887v5.76h.973v-4.44c.191-.238.59-.637 1.176-.637m-5.567 0c.672 0 .996.399.996 1.371v3.707h.97V4.883c0-1.523-.634-2.125-1.642-2.125-.925 0-1.359.555-1.476.735h-.024V.071L69 .18v8.484h.972v-4.44c.192-.24.586-.638 1.176-.638m-3.168-.25c-.18-.203-.59-.578-1.465-.578-1.14 0-2.414.805-2.414 3.016 0 2.254 1.02 3.035 2.305 3.035.902 0 1.344-.422 1.5-.602l-.395-.671c-.12.132-.42.41-1.007.41-.828 0-1.395-.555-1.395-2.246 0-1.524.65-2.114 1.477-2.114.578 0 .88.325.984.434zm-4.789 4.789-.359-.683a1.7 1.7 0 0 1-1.215.504c-.969 0-1.5-.637-1.559-1.981H63c.035-.277.07-.625.07-1.117 0-1.38-.672-2.09-1.762-2.09-1.203 0-2.199.914-2.199 2.953 0 2.172.914 3.098 2.367 3.098 1.09 0 1.56-.516 1.715-.684m-1.945-4.574c.613 0 .937.469.937 1.262 0 .18-.01.336-.023.418h-2.09c.047-1.078.492-1.68 1.176-1.68M59.422.383H53.89v.828h2.207v7.453h1.047V1.21h2.207zm-9.55 9.96c.636-.225 1.39-.741 1.39-1.835 0-.793-.325-1.176-.79-1.176-.336 0-.625.215-.625.649 0 .44.29.683.661.683h.035c0 .696-.37 1.008-.875 1.258zm-3.29-6.757c.672 0 .996.399.996 1.371v3.707h.972V4.883c0-1.523-.636-2.125-1.644-2.125-.922 0-1.356.555-1.477.735h-.023V.071l-.973.109v8.484h.973v-4.44c.191-.24.59-.638 1.176-.638m-3.168-.25c-.18-.203-.586-.578-1.465-.578-1.137 0-2.41.805-2.41 3.016 0 2.254 1.02 3.035 2.304 3.035.9 0 1.344-.422 1.5-.602l-.398-.671c-.117.132-.418.41-1.008.41-.828 0-1.39-.555-1.39-2.246 0-1.524.648-2.114 1.476-2.114.574 0 .875.325.985.434zm-4.309-.445c-.094-.035-.25-.094-.527-.094-.73 0-1.043.43-1.21.887h-.025v-.781h-.886v5.76h.97V4.443c.143-.387.467-.781 1.081-.781.261 0 .43.07.48.093zm-5.074 3.254v1.269c-.12.18-.395.567-.961.567-.48 0-.766-.301-.766-.891 0-.633.493-.898 1.414-.933zm0-.723h-.3c-1.31 0-2.399.446-2.399 1.778 0 .937.66 1.609 1.535 1.609.73 0 1.078-.492 1.21-.781h.024c.012.289.028.468.039.636h.922c-.023-.156-.07-.707-.07-1.2V4.837c0-1.453-.625-2.078-1.801-2.078-.926 0-1.476.445-1.726.7l.406.648c.215-.195.6-.52 1.176-.52.625 0 .984.313.984 1.285zm-3.54 2.703-.358-.683a1.7 1.7 0 0 1-1.215.504c-.973 0-1.5-.637-1.559-1.981H30.3a8 8 0 0 0 .071-1.117c0-1.38-.672-2.09-1.766-2.09-1.2 0-2.195.914-2.195 2.953 0 2.172.914 3.098 2.363 3.098 1.094 0 1.563-.516 1.719-.684m-1.944-4.574c.613 0 .937.469.937 1.262 0 .18-.012.336-.023.418h-2.09c.047-1.078.492-1.68 1.176-1.68m-3.168-.18c-.192-.191-.575-.613-1.465-.613-.934 0-1.668.637-1.668 1.488 0 .793.433 1.262 1.152 1.719l.36.227c.554.347.839.539.839 1.094 0 .371-.308.66-.886.66-.625 0-.985-.375-1.164-.567l-.47.77c.23.238.696.66 1.622.66 1.176 0 1.836-.707 1.836-1.621 0-.852-.481-1.32-1.262-1.79l-.359-.214c-.516-.313-.754-.551-.754-.984 0-.336.273-.614.793-.614.539 0 .875.336 1.008.48zM21.3 8.125l-.363-.683c-.13.129-.527.504-1.21.504-.973 0-1.5-.637-1.559-1.981h2.937c.04-.277.074-.625.074-1.117 0-1.38-.671-2.09-1.765-2.09-1.2 0-2.196.914-2.196 2.953 0 2.172.915 3.098 2.364 3.098 1.094 0 1.562-.516 1.718-.684m-1.945-4.574c.613 0 .938.469.938 1.262 0 .18-.016.336-.028.418h-2.086c.047-1.078.493-1.68 1.176-1.68M12.66 5.293h.457c.19 0 .383-.01.562-.023l1.715 3.394h1.227l-1.945-3.648c.949-.406 1.414-1.234 1.414-2.316 0-1.524-.934-2.317-2.926-2.317h-1.547v8.28h1.043zm2.316-2.535c0 1.082-.601 1.707-1.86 1.707h-.456V1.21h.504c1.234 0 1.812.504 1.812 1.547m-6.851.938.117-.793H6.949V1.87c0-.753.25-1.007.707-1.007.25 0 .43.097.527.156l.203-.805A1.65 1.65 0 0 0 7.57 0c-.852 0-1.594.504-1.594 1.762v1.152l-.699.133v.649h.699v4.968h.973V3.696Zm-4.586 2.09c0 1.523-.47 2.16-1.262 2.16-.79 0-1.27-.637-1.27-2.16 0-1.528.469-2.2 1.258-2.2.793 0 1.274.672 1.274 2.2M0 5.786c0 2.16.972 3.023 2.242 3.023 1.262 0 2.305-.88 2.305-3.023 0-2.125-.973-3.028-2.243-3.028C1.066 2.758 0 3.66 0 5.786" style="fill:#000;fill-rule:nonzero;stroke:none" transform="matrix(.35278 0 0 .35278 88.236 23.158)"/><path d="m42.683 8.054-.359-.683a1.68 1.68 0 0 1-1.21.504c-.974 0-1.5-.637-1.56-1.98h2.938c.04-.278.074-.626.074-1.118 0-1.379-.672-2.09-1.766-2.09-1.199 0-2.195.914-2.195 2.953 0 2.172.91 3.098 2.363 3.098 1.094 0 1.563-.516 1.715-.684m-1.94-4.574c.608 0 .932.47.932 1.262 0 .18-.01.336-.023.418h-2.086c.047-1.078.492-1.68 1.176-1.68m-2.798-.215c-.18-.203-.59-.578-1.465-.578-1.141 0-2.41.805-2.41 3.016 0 2.254 1.019 3.035 2.304 3.035.9 0 1.344-.422 1.5-.602l-.398-.67c-.12.131-.418.409-1.008.409-.828 0-1.39-.555-1.39-2.246 0-1.524.648-2.114 1.476-2.114.574 0 .875.325.985.434zm-6.035 2.81v1.268c-.121.18-.4.567-.961.567-.481 0-.77-.301-.77-.89 0-.634.492-.899 1.418-.934zm0-.724h-.301c-1.309 0-2.4.446-2.4 1.778 0 .937.662 1.609 1.537 1.609.73 0 1.078-.492 1.21-.78h.024c.012.288.023.467.035.635h.926c-.024-.156-.07-.707-.07-1.199V4.765c0-1.453-.625-2.078-1.801-2.078-.926 0-1.477.445-1.731.7l.411.648c.214-.195.597-.52 1.175-.52.625 0 .985.313.985 1.285zm-6.086 3.352c1.308 0 2.496-.817 2.496-3.145 0-2.027-.778-2.87-1.97-2.87-.886 0-1.304.503-1.448.757h-.024v-.613h-.89v8.16h.972V8.558c.18.071.469.145.864.145m0-.867c-.395 0-.684-.118-.864-.25V4.047c.18-.207.528-.532 1.129-.532.707 0 1.223.567 1.223 2.114 0 1.668-.598 2.207-1.488 2.207M22.562.793c-.18-.145-.711-.625-1.812-.625-1.297 0-2.126.816-2.126 1.886 0 1.137.528 1.692 1.442 2.457l.672.567c.695.586 1.03.972 1.03 1.691 0 .563-.456 1.031-1.272 1.031-.852 0-1.403-.527-1.606-.718l-.422.91c.242.22.864.746 2.05.746 1.489 0 2.306-.852 2.306-2.113 0-1.078-.61-1.727-1.391-2.375l-.672-.55c-.758-.614-1.105-1.025-1.105-1.669 0-.52.375-.96 1.094-.96.765 0 1.246.382 1.378.515zM13.847 7.98h.027v.613h.887V0l-.972.109v2.762a2.1 2.1 0 0 0-.817-.145c-1.222 0-2.543.742-2.543 3.071 0 2.101.922 2.94 2.016 2.94.914 0 1.297-.577 1.402-.757m-1.137-.105c-.671 0-1.273-.532-1.273-2.114 0-1.632.707-2.207 1.609-2.207.348 0 .575.094.743.204v3.55a1.29 1.29 0 0 1-1.08.567m-5.437-4.36c.672 0 .996.4.996 1.371v3.707h.973v-3.78c0-1.559-.65-2.126-1.68-2.126-.902 0-1.418.59-1.523.793H6.01v-.648h-.887v5.761h.973v-4.44c.192-.239.586-.638 1.176-.638m-4.57 2.56v1.268c-.121.18-.4.567-.961.567-.481 0-.77-.301-.77-.89 0-.634.492-.899 1.418-.934zm0-.724h-.301C1.092 5.351 0 5.797 0 7.13c0 .937.66 1.609 1.539 1.609.73 0 1.078-.492 1.211-.78h.023c.012.288.023.467.035.635h.926a10 10 0 0 1-.074-1.199V4.765c0-1.453-.621-2.078-1.797-2.078-.926 0-1.477.445-1.731.7l.41.648c.215-.195.598-.52 1.176-.52.62 0 .985.313.985 1.285z" style="fill:#000;fill-rule:nonzero;stroke:none" transform="matrix(.35278 0 0 .35278 88.21 27.416)"/><path d="M9.7.555 7.412 7.243h-.966L5.25 3.411h-.02L3.885 7.243h-.956L.599.555.146.451C.042.419 0 .377 0 .314 0 .219.073.094.116 0h2.56s.012.062.012.115c0 .168-.084.304-.357.367L1.9.577l1.69 5.417h.03l1.272-3.622L4.335.555l-.44-.104C3.79.419 3.748.377 3.748.314c0-.095.073-.22.115-.314h2.551s.01.062.01.115c0 .168-.083.304-.356.367l-.472.095 1.511 5.427h.032L8.924.566 8.188.43C8.084.409 8.042.377 8.042.314c0-.095.094-.273.115-.314h2.152s.01.062.01.115c0 .188-.084.304-.356.378z" style="fill:#000;fill-rule:nonzero;stroke:none" transform="matrix(.35278 0 0 .35278 73.673 8.481)"/><path d="M1.281 1.344c-.388 0-.683-.263-.683-.672C.598.274.893 0 1.281 0c.378 0 .692.274.692.672 0 .409-.314.672-.692.672m.535 5.606.62.136c.105.022.147.053.147.137a.7.7 0 0 1-.106.294H.074s-.01-.063-.01-.095c0-.188.125-.272.325-.346l.367-.126V3.066L.01 2.95S0 2.887 0 2.845c0-.178.137-.304.389-.325l1.427-.137Z" style="fill:#000;fill-rule:nonzero;stroke:none" transform="matrix(.35278 0 0 .35278 77.425 8.385)"/><path d="M3.297 1.995H1.859V5.06c0 .473.146.861.672.861.409 0 .744-.178.828-.252a.8.8 0 0 1 .095.346c0 .106-.367.599-1.323.599-.955 0-1.333-.557-1.333-1.365V1.995H.011S0 1.932 0 1.9c0-.199.126-.314.325-.356l.515-.126L1.081 0h.778v1.418h1.554z" style="fill:#000;fill-rule:nonzero;stroke:none" transform="matrix(.35278 0 0 .35278 78.425 8.748)"/><path d="M1.827 3.182h.02c.21-.252.714-.756 1.618-.756 1.05 0 1.648.619 1.648 1.847v2.782l.609.136c.105.022.147.053.147.137 0 .105-.084.263-.105.294H3.38s-.011-.063-.011-.095c0-.188.126-.283.325-.346l.347-.126V4.399c0-.892-.483-1.165-1.019-1.165-.65 0-.996.284-1.196.483v3.338l.588.136c.105.022.146.053.146.137a.6.6 0 0 1-.104.294H.074s-.01-.063-.01-.095c0-.188.125-.283.325-.346l.367-.126V.682L.01.578S0 .504 0 .462C0 .284.137.158.389.137L1.827 0z" style="fill:#000;fill-rule:nonzero;stroke:none" transform="matrix(.35278 0 0 .35278 79.837 8.348)"/><path d="M3.138 3.192h-1.28v3.926l.713.136c.106.022.148.053.148.137a.6.6 0 0 1-.105.294H.115s-.01-.063-.01-.095c0-.188.125-.272.325-.346l.357-.126V3.192H.01S0 3.129 0 3.097c0-.199.126-.304.325-.356l.462-.126v-.106C.787.819 1.816 0 2.72 0c.524 0 .735.231.735.557 0 .262-.158.409-.316.493a1.02 1.02 0 0 0-.692-.305c-.452 0-.61.252-.61.872 0 .326.022.998.022.998h1.396z" style="fill:#000;fill-rule:nonzero;stroke:none" transform="matrix(.35278 0 0 .35278 82.804 8.326)"/><path d="m4.976 4.546.766.105s.01.042.01.084c0 .189-.136.315-.388.336l-1.385.126v-.693h-.021c-.168.221-.63.756-1.554.756-1.123 0-1.648-.661-1.648-1.9V.683L.01.567S0 .504 0 .462C0 .284.137.158.388.137L1.816 0v3.307c0 .956.504 1.176.966 1.176a1.45 1.45 0 0 0 1.134-.504V.683L3.17.567S3.16.504 3.16.462c0-.178.136-.304.388-.325L4.976 0z" style="fill:#000;fill-rule:nonzero;stroke:none" transform="matrix(.35278 0 0 .35278 84.15 9.225)"/><path d="m5.102 4.629.62.136c.105.022.146.053.146.137 0 .105-.084.263-.105.294H3.38s-.01-.063-.01-.095c0-.188.126-.283.325-.346l.347-.126V1.973c0-.892-.504-1.165-1.018-1.165-.599 0-.988.284-1.208.462v3.359l.599.136c.105.022.147.053.147.137 0 .105-.084.263-.106.294H.074s-.011-.063-.011-.095c0-.188.126-.272.325-.346l.368-.126V.745L.011.629S0 .566 0 .524C0 .346.136.22.388.199L1.816.062l-.063.735h.031C2.068.493 2.54 0 3.506 0c1.03 0 1.596.661 1.596 1.847z" style="fill:#000;fill-rule:nonzero;stroke:none" transform="matrix(.35278 0 0 .35278 86.413 9.204)"/><path d="M3.454 3.37c-.158-.147-.441-.315-.882-.315-.85 0-1.48.609-1.48 1.995 0 1.354.588 1.9 1.29 1.9.61 0 .935-.283 1.072-.441zm1.06 3.664.766.105s.011.042.011.084c0 .189-.137.315-.389.336l-1.385.126v-.682h-.031c-.232.325-.673.745-1.492.745C.966 7.748 0 7.087 0 5.26c0-1.953 1.365-2.834 2.709-2.834.304 0 .566.052.745.094V.682L2.708.578s-.01-.074-.01-.116c0-.178.136-.304.388-.325L4.514 0Z" style="fill:#000;fill-rule:nonzero;stroke:none" transform="matrix(.35278 0 0 .35278 88.656 8.348)"/><path d="M1.281 1.344C.893 1.344.6 1.081.6.672.599.274.893 0 1.28 0c.378 0 .693.274.693.672 0 .409-.315.672-.693.672m.535 5.606.62.136c.105.022.147.053.147.137 0 .105-.084.263-.105.294H.074s-.01-.063-.01-.095c0-.188.126-.272.325-.346l.367-.126V3.066L.01 2.95S0 2.887 0 2.845c0-.178.137-.304.389-.325l1.427-.137Z" style="fill:#000;fill-rule:nonzero;stroke:none" transform="matrix(.35278 0 0 .35278 90.755 8.385)"/><path d="m5.101 4.629.62.136c.105.022.147.053.147.137 0 .105-.084.263-.105.294H3.38s-.01-.063-.01-.095c0-.188.125-.283.325-.346l.347-.126V1.973c0-.892-.504-1.165-1.018-1.165-.6 0-.988.284-1.208.462v3.359l.598.136c.106.022.147.053.147.137 0 .105-.084.263-.105.294H.073s-.01-.063-.01-.095c0-.188.125-.272.325-.346l.367-.126V.745L.01.629S0 .566 0 .524C0 .346.136.22.388.199L1.816.062l-.063.735h.031C2.068.493 2.54 0 3.506 0 4.536 0 5.1.661 5.1 1.847z" style="fill:#000;fill-rule:nonzero;stroke:none" transform="matrix(.35278 0 0 .35278 91.901 9.204)"/><path d="M1.365 1.69c0 .829.42 1.154.945 1.154.567 0 .976-.325.976-1.154 0-.746-.41-1.124-.955-1.124-.546 0-.966.315-.966 1.124m.462 3.464c-.147 0-.273-.011-.388-.021a.86.86 0 0 0-.451.777c0 .546.335.893 1.101.893 1.018 0 1.649-.473 1.649-1.03 0-.43-.242-.619-.777-.619zM4.851.724H4c.2.262.325.577.325.955 0 1.113-.923 1.743-2.068 1.743-.178 0-.336-.021-.493-.053-.147.084-.294.231-.294.473 0 .252.168.367.525.367h1.218c.966 0 1.512.441 1.512 1.197 0 1.05-1.03 2.016-2.803 2.016C.63 7.422 0 6.97 0 6.204c0-.735.578-1.081.956-1.197v-.021a.79.79 0 0 1-.43-.735c0-.609.556-.892.755-.997v-.021C.693 2.97.315 2.435.315 1.679.315.577 1.24 0 2.31 0q.425 0 .819.126h1.837z" style="fill:#000;fill-rule:nonzero;stroke:none" transform="matrix(.35278 0 0 .35278 94.12 9.204)"/><path d="M3.14 3.192H1.857v3.926l.714.136c.105.022.147.053.147.137a.6.6 0 0 1-.104.294h-2.5s-.01-.063-.01-.095c0-.188.127-.272.326-.346l.357-.126V3.192H.01S0 3.129 0 3.097c0-.199.126-.304.326-.356l.461-.126v-.106C.788.819 1.818 0 2.72 0c.525 0 .735.231.735.557 0 .262-.157.409-.315.493a1.02 1.02 0 0 0-.692-.305c-.452 0-.61.252-.61.872 0 .326.021.998.021.998h1.397z" style="fill:#000;fill-rule:nonzero;stroke:none" transform="matrix(.35278 0 0 .35278 96.761 8.326)"/><path d="M1.753.965h.031C2.005.608 2.394 0 3.076 0 3.57 0 3.8.23 3.8.556c0 .231-.105.43-.188.536a1.6 1.6 0 0 0-.704-.158c-.578 0-.872.231-1.092.535v3.16l.756.136c.105.022.147.053.147.137 0 .105-.084.263-.105.294H.074s-.011-.063-.011-.095c0-.188.126-.272.325-.346l.368-.126V.745L.011.629S0 .566 0 .524C0 .346.136.22.388.199L1.816.062z" style="fill:#000;fill-rule:nonzero;stroke:none" transform="matrix(.35278 0 0 .35278 98.133 9.204)"/><path d="M1.124 2.656c0 1.406.567 2.036 1.343 2.036.777 0 1.354-.609 1.354-2.016 0-1.406-.577-2.057-1.354-2.057-.776 0-1.343.619-1.343 2.037m3.82-.043c0 1.816-1.269 2.709-2.55 2.709C1.082 5.322 0 4.482 0 2.719 0 .944 1.26 0 2.593 0c1.313 0 2.352.787 2.352 2.613" style="fill:#000;fill-rule:nonzero;stroke:none" transform="matrix(.35278 0 0 .35278 99.643 9.204)"/><path d="m8.2 4.629.598.136c.105.022.147.053.147.137a.6.6 0 0 1-.105.294H6.467s-.01-.063-.01-.095c0-.188.126-.283.326-.346l.345-.126V1.973c0-.913-.451-1.165-.944-1.165-.641 0-.997.273-1.239.493.032.168.053.347.053.546v2.782l.609.136c.104.022.146.053.146.137a.6.6 0 0 1-.104.294H3.265s-.01-.063-.01-.095c0-.188.126-.283.326-.346l.346-.126V1.973c0-.913-.441-1.165-.934-1.165-.588 0-.935.241-1.176.441v3.38l.599.136c.104.022.146.053.146.137 0 .105-.084.263-.104.294H.074s-.01-.063-.01-.095c0-.188.125-.272.325-.346l.367-.126V.745L.011.629S0 .566 0 .524C0 .346.137.22.389.199L1.817.062l-.064.683h.033A2.16 2.16 0 0 1 3.444 0c.641 0 1.113.294 1.354.85.284-.315.84-.85 1.785-.85C7.59 0 8.2.64 8.2 1.847z" style="fill:#000;fill-rule:nonzero;stroke:none" transform="matrix(.35278 0 0 .35278 101.605 9.204)"/><path d="M3.297 1.995H1.859V5.06c0 .473.147.861.672.861.41 0 .746-.178.83-.252a.8.8 0 0 1 .093.346c0 .106-.367.599-1.322.599S.798 6.057.798 5.249V1.995H.011S0 1.932 0 1.9c0-.199.126-.314.327-.356l.513-.126L1.082 0h.777v1.418h1.553z" style="fill:#000;fill-rule:nonzero;stroke:none" transform="matrix(.35278 0 0 .35278 105.62 8.748)"/><path d="M1.827 3.182h.021c.21-.252.714-.756 1.617-.756 1.05 0 1.648.619 1.648 1.847v2.782l.609.136c.105.022.146.053.146.137 0 .105-.084.263-.104.294H3.381s-.011-.063-.011-.095c0-.188.126-.283.326-.346l.346-.126V4.399c0-.892-.482-1.165-1.018-1.165-.651 0-.997.284-1.197.483v3.338l.588.136c.105.022.147.053.147.137a.6.6 0 0 1-.105.294H.074s-.01-.063-.01-.095c0-.188.126-.283.325-.346l.367-.126V.682L.011.578S0 .504 0 .462C0 .284.137.158.389.137L1.827 0z" style="fill:#000;fill-rule:nonzero;stroke:none" transform="matrix(.35278 0 0 .35278 107.032 8.348)"/><path d="M2.95 2.12c.021-.094.053-.273.053-.451 0-.577-.211-1.071-.82-1.071-.619 0-.987.494-1.06 1.522Zm-1.838.556c.011 1.302.631 1.911 1.533 1.911a1.9 1.9 0 0 0 1.313-.483c.104.084.157.263.157.357 0 .262-.692.861-1.858.861C.966 5.322 0 4.587 0 2.76S1.102 0 2.299 0c1.186 0 1.785.724 1.785 1.774 0 .273-.053.64-.126.902z" style="fill:#000;fill-rule:nonzero;stroke:none" transform="matrix(.35278 0 0 .35278 109.273 9.204)"/><path d="M.652 5.333C.283 5.333 0 5.081 0 4.692c0-.399.283-.651.652-.651.367 0 .661.252.661.651 0 .389-.294.641-.661.641m0-4.042C.283 1.291 0 1.039 0 .65 0 .252.283 0 .652 0c.367 0 .661.252.661.65 0 .389-.294.641-.661.641" style="fill:#000;fill-rule:nonzero;stroke:none" transform="matrix(.35278 0 0 .35278 111.09 9.204)"/></svg>